<?xml version="1.0" encoding="UTF-8"?>
<svg id="Layer_1" xmlns="http://www.w3.org/2000/svg" version="1.1" viewBox="0 0 4000 1501.84">
  <!-- Generator: Adobe Illustrator 29.3.0, SVG Export Plug-In . SVG Version: 2.1.0 Build 146)  -->
  <defs>
    <style>
      .st0 {
        fill: #5a70f3;
      }
    </style>
  </defs>
  <g>
    <g>
      <path class="st0" d="M226.43,275.19l164.2,182.01c4.63-4.56,10.75-7.6,17.58-8.3v-184.33h-175.58c-1.3,3.99-3.44,7.58-6.2,10.62Z"/>
      <path class="st0" d="M865.44,1034.82h-426.88c-2.72,11.15-11.78,19.8-23.16,21.9v180.55h471.43v-179.45c-10.89-2.87-19.31-11.8-21.38-23Z"/>
      <path class="st0" d="M381.54,1034.82h-169.64v183.02c5.76.7,11.01,3.06,15.25,6.61l159.95-178.29c-2.62-3.28-4.53-7.13-5.56-11.34Z"/>
      <path class="st0" d="M386.12,462.94l-165.13-183.04c-2.74,1.83-5.81,3.18-9.09,4.01v182.9h172.23c.56-1.35,1.25-2.63,2-3.87Z"/>
      <path class="st0" d="M232.06,1229.75c1.66,2.28,2.99,4.81,3.94,7.52h172.2v-180.13c-5.98-.37-11.47-2.53-15.95-5.95l-160.19,178.56Z"/>
      <path class="st0" d="M381.86,478.12c0-1.4.13-2.77.32-4.12h-170.28v553.64h168.78c.12-15.5,12.23-28.11,27.52-29.06v-491.23c-14.8-1.52-26.34-14.02-26.34-29.22Z"/>
      <path class="st0" d="M894.3,1058.82c-.1,0-.19-.01-.29-.01v178.46h175.17c1.35-3.86,3.49-7.35,6.22-10.28l-159.9-177.24c-5.35,5.58-12.86,9.07-21.2,9.07Z"/>
      <path class="st0" d="M1084.75,279.26l-164.42,183.28c.71,1.36,1.32,2.79,1.81,4.26h171.14v-183.41c-3.09-.92-5.95-2.33-8.52-4.14Z"/>
      <path class="st0" d="M919.88,1043.86l161.02,178.49c3.65-2.37,7.86-3.95,12.38-4.5v-183.02h-170.12c-.6,3.23-1.72,6.27-3.29,9.04Z"/>
      <path class="st0" d="M916.1,456.49l163.33-182.06c-2.47-2.86-4.4-6.2-5.63-9.86h-179.79v182.2c.1,0,.19-.01.29-.01,8.66,0,16.42,3.77,21.8,9.73Z"/>
      <path class="st0" d="M560.48,466.81h305.98c3.12-9.32,10.78-16.53,20.36-19.05v-183.18h-326.34v202.24Z"/>
      <path class="st0" d="M923.68,476.13c0,16.22-13.15,29.38-29.38,29.38-.1,0-.19-.01-.29-.01v388.96h199.27v-420.45h-169.71c.05.71.11,1.41.11,2.13Z"/>
    </g>
    <path d="M1101.64,284.62c12.96,0,23.94-8.4,27.84-20.05h110.59v-7.19h-109.17c.05-.71.11-1.41.11-2.13,0-7.43-2.78-14.2-7.33-19.37l102.13-113.84-5.35-4.8-102.14,113.85c-4.74-3.28-10.48-5.21-16.68-5.21-.39,0-.78.04-1.17.06V92.63h-7.19v134.46c-12.15,3.6-21.02,14.83-21.02,28.15,0,.72.06,1.43.11,2.13h-178.36V92.63h-7.19v164.75h-471.43V89.46h-7.19v167.92h-174.21c.04-.64.1-1.27.1-1.92,0-13.74-9.44-25.24-22.19-28.45V89.46h-7.19v136.62c-6.52,0-12.53,2.15-17.4,5.75l-103.39-114.6-5.34,4.82,103.48,114.71c-4.2,5.08-6.73,11.6-6.73,18.71,0,.65.06,1.29.1,1.92h-111.12v7.19h112.48c3.84,11.76,14.88,20.26,27.92,20.26v181.97H64.31v7.19h140.4v553.64H64.31v7.19h140.4v183.02c-11.22,1.37-20.47,9.07-24.1,19.42h-116.29v7.19h114.74c-.07.83-.13,1.67-.13,2.52,0,8.32,3.47,15.81,9.03,21.16l-103.03,114.84,5.35,4.8,103.46-115.32c3.31,1.9,7.02,3.16,10.97,3.65v133.09h7.19v-133.09c14.52-1.78,25.78-14.13,25.78-29.13,0-.85-.06-1.69-.13-2.52h170.65v164.75h7.19v-164.75h471.43v167.92h7.19v-167.92h173.62c-.07.83-.13,1.67-.13,2.52,0,15,11.26,27.36,25.78,29.13v136.27h7.19v-136.27c5.25-.64,10.07-2.68,14.09-5.72l105.91,117.4,5.34-4.82-106.06-117.57c4.07-5.04,6.51-11.44,6.51-18.43,0-.85-.06-1.69-.13-2.52h113.95v-7.19h-115.5c-3.63-10.36-12.88-18.05-24.1-19.42v-183.02h139.6v-7.19h-139.6V474h139.6v-7.19h-139.6v-182.24c.39.02.77.06,1.17.06ZM1073.8,264.57c1.23,3.67,3.15,7,5.63,9.86l-163.33,182.06c-5.38-5.96-13.14-9.73-21.8-9.73-.1,0-.19.01-.29.01v-182.2h179.79ZM439.41,1027.63c-.06-7.76-3.13-14.78-8.09-20l222.47-247.98,222.49,246.63c-6.45,5.03-10.74,12.68-11.27,21.36h-425.6ZM877.13,499.93l-223.35,248.97-223.84-248.12c6.52-5.39,10.68-13.54,10.68-22.66,0-1.4-.13-2.77-.32-4.12h424.74c-.05.71-.11,1.41-.11,2.13,0,9.8,4.82,18.46,12.2,23.8ZM425.76,1003.06c-3.11-1.98-6.61-3.38-10.37-4.08v-491.82c2.96-.42,5.76-1.27,8.37-2.5l225.19,249.62-223.19,248.78ZM882.57,1002.51l-223.95-248.25,224.99-250.79c1.04.41,2.11.75,3.21,1.04v496.55c-1.46.38-2.88.86-4.24,1.45ZM886.82,264.57v183.18c-9.58,2.52-17.24,9.73-20.36,19.05h-428.11c-3.92-9.38-12.57-16.26-22.96-17.74v-184.5h471.43ZM408.2,264.57v184.33c-6.82.7-12.95,3.74-17.58,8.3l-164.2-182.01c2.76-3.03,4.9-6.63,6.2-10.62h175.58ZM211.9,283.91c3.28-.83,6.36-2.18,9.09-4.01l165.13,183.04c-.75,1.24-1.43,2.52-2,3.87h-172.23v-182.9ZM211.9,474h170.28c-.19,1.35-.32,2.72-.32,4.12,0,15.2,11.54,27.7,26.34,29.22v491.23c-15.29.95-27.4,13.56-27.52,29.06h-168.78V474ZM381.54,1034.82c1.03,4.21,2.94,8.06,5.56,11.34l-159.95,178.29c-4.23-3.55-9.48-5.9-15.25-6.61v-183.02h169.64ZM236,1237.27c-.95-2.71-2.28-5.24-3.94-7.52l160.19-178.56c4.48,3.42,9.97,5.58,15.95,5.95v180.13h-172.2ZM415.39,1237.27v-180.55c11.38-2.1,20.45-10.74,23.16-21.9h426.88c2.08,11.19,10.49,20.13,21.38,23v179.45h-471.43ZM894.01,1237.27v-178.46c.1,0,.19.01.29.01,8.34,0,15.85-3.49,21.2-9.07l159.9,177.24c-2.73,2.93-4.86,6.42-6.22,10.28h-175.17ZM1093.28,1217.85c-4.53.55-8.73,2.13-12.38,4.5l-161.02-178.49c1.56-2.77,2.69-5.81,3.29-9.04h170.12v183.02ZM1093.28,1027.63h-169.69c-.94-15.38-13.67-27.57-29.28-27.57-.1,0-.19.01-.29.01v-494.59c.1,0,.19.01.29.01,16.22,0,29.38-13.15,29.38-29.38,0-.72-.06-1.43-.11-2.13h169.71v553.64ZM1093.28,466.81h-171.14c-.49-1.48-1.1-2.9-1.81-4.26l164.42-183.28c2.57,1.81,5.44,3.22,8.52,4.14v183.41Z"/>
  </g>
  <g>
    <polygon points="1579.06 443.37 1464.93 443.37 1464.93 1042.75 1579.06 883.38 1579.06 443.37"/>
    <polygon points="1470.25 1046.67 1845.27 1046.67 1845.27 953.5 1648.35 953.5 1470.25 1046.67"/>
    <rect x="1918.81" y="521.07" width="366.37" height="93.84"/>
    <path d="M2019.81,874.17c0-23.64,19.16-42.8,42.8-42.8h216.75v-93.67h-226.03c-74.29,0-134.52,60.23-134.52,134.52v174.45h376.35v-89.01h-275.36v-83.48Z"/>
    <path d="M2637.83,521.24h-249.16v525.6h249.16c125.57,0,227.36-101.79,227.36-227.36v-70.88c0-125.57-101.79-227.36-227.36-227.36ZM2765.36,814.15c0,76.87-62.31,139.18-139.18,139.18h-137.68v-338.59h137.68c76.87,0,139.18,62.31,139.18,139.18v60.23Z"/>
    <path d="M3339.05,674.31v-14.97c0-76.27-61.83-138.1-138.1-138.1h-266.54v93.51h242.83c33.49,0,60.65,27.15,60.65,60.65v1.46c0,45-36.48,81.49-81.49,81.49h-221.99v288.51h99.33v-205.48h81.59l148.69,205.48h117.8l-156.3-214.29c66-22.31,113.54-84.7,113.54-158.24Z"/>
    <polygon points="3705.42 521.24 3600.26 521.24 3381.81 1046.84 3486.63 1046.84 3654.17 637.2 3827.87 1046.84 3935.69 1046.84 3705.42 521.24"/>
  </g>
</svg>